<svg xmlns="http://www.w3.org/2000/svg" width="80" height="22" viewBox="0 0 80 22" fill="none">
  <path d="M13.332 16.808C12.14 16.808 11.084 16.592 10.164 16.16C9.26 15.728 8.54 15.088 8.004 14.24C7.484 13.392 7.224 12.352 7.224 11.12C7.224 9.888 7.484 8.848 8.004 8C8.54 7.152 9.26 6.512 10.164 6.08C11.084 5.648 12.14 5.432 13.332 5.432C14.1 5.432 14.804 5.552 15.444 5.792C16.084 6.016 16.644 6.336 17.124 6.752C17.604 7.168 17.98 7.664 18.252 8.24L16.548 9.296C16.388 8.944 16.164 8.624 15.876 8.336C15.604 8.032 15.26 7.792 14.844 7.616C14.444 7.44 13.964 7.352 13.404 7.352C12.556 7.352 11.82 7.504 11.196 7.808C10.572 8.096 10.084 8.528 9.732 9.104C9.38 9.664 9.204 10.336 9.204 11.12C9.204 11.904 9.38 12.576 9.732 13.136C10.084 13.696 10.572 14.128 11.196 14.432C11.82 14.736 12.556 14.888 13.404 14.888C13.964 14.888 14.444 14.8 14.844 14.624C15.26 14.448 15.604 14.208 15.876 13.904C16.164 13.6 16.388 13.28 16.548 12.944L18.252 14C17.98 14.56 17.604 15.056 17.124 15.488C16.644 15.904 16.084 16.224 15.444 16.448C14.804 16.688 14.1 16.808 13.332 16.808Z" fill="white"/>
  <path d="M27.0766 16.808C25.9966 16.808 25.0126 16.592 24.1246 16.16C23.2366 15.728 22.5326 15.088 22.0126 14.24C21.5086 13.376 21.2566 12.336 21.2566 11.12C21.2566 9.904 21.5086 8.864 22.0126 8C22.5326 7.136 23.2366 6.496 24.1246 6.08C25.0126 5.648 25.9966 5.432 27.0766 5.432C28.1566 5.432 29.1406 5.648 30.0286 6.08C30.9166 6.496 31.6126 7.136 32.1166 8C32.6366 8.864 32.8966 9.904 32.8966 11.12C32.8966 12.336 32.6366 13.376 32.1166 14.24C31.6126 15.088 30.9166 15.728 30.0286 16.16C29.1406 16.592 28.1566 16.808 27.0766 16.808ZM27.0766 14.888C27.8766 14.888 28.5806 14.736 29.1886 14.432C29.7966 14.128 30.2686 13.696 30.6046 13.136C30.9406 12.576 31.1086 11.904 31.1086 11.12C31.1086 10.336 30.9406 9.664 30.6046 9.104C30.2686 8.528 29.7966 8.096 29.1886 7.808C28.5806 7.504 27.8766 7.352 27.0766 7.352C26.2766 7.352 25.5726 7.504 24.9646 7.808C24.3566 8.096 23.8846 8.528 23.5486 9.104C23.2126 9.664 23.0446 10.336 23.0446 11.12C23.0446 11.904 23.2126 12.576 23.5486 13.136C23.8846 13.696 24.3566 14.128 24.9646 14.432C25.5726 14.736 26.2766 14.888 27.0766 14.888Z" fill="white"/>
  <path d="M41.2251 16.808C40.0331 16.808 38.9771 16.592 38.0571 16.16C37.1531 15.728 36.4411 15.088 35.9211 14.24C35.4011 13.376 35.1411 12.336 35.1411 11.12C35.1411 9.904 35.4011 8.864 35.9211 8C36.4411 7.136 37.1451 6.496 38.0331 6.08C38.9371 5.648 39.9851 5.432 41.1771 5.432C42.1851 5.432 43.0811 5.592 43.8651 5.912C44.6491 6.232 45.2891 6.688 45.7851 7.28L44.5131 8.768C44.1451 8.336 43.6971 8.016 43.1691 7.808C42.6411 7.584 42.0811 7.472 41.4891 7.472C40.2811 7.472 39.3531 7.832 38.7051 8.552C38.0731 9.256 37.7571 10.096 37.7571 11.072C37.7571 11.856 37.9171 12.528 38.2371 13.088C38.5731 13.648 39.0371 14.08 39.6291 14.384C40.2211 14.688 40.9091 14.84 41.6931 14.84C42.3171 14.84 42.9011 14.736 43.4451 14.528C43.9891 14.304 44.4691 13.968 44.8851 13.52L46.1091 14.96C45.5651 15.552 44.8891 16.016 44.0811 16.352C43.2731 16.656 42.3811 16.808 41.2251 16.808Z" fill="white"/>
  <path d="M51.2529 16.664C50.9009 16.664 50.6049 16.544 50.3649 16.304C50.1249 16.064 50.0049 15.768 50.0049 15.416V6.824H51.9609V13.328L56.6769 6.824H58.4169V16.664H56.4609V10.16L51.7449 16.664H51.2529Z" fill="white"/>
</svg> 